<?xml version="1.0" encoding="UTF-8" standalone="no"?>
<!-- Creator: CorelDRAW -->
<svg
   xmlns:dc="http://purl.org/dc/elements/1.1/"
   xmlns:cc="http://web.resource.org/cc/"
   xmlns:rdf="http://www.w3.org/1999/02/22-rdf-syntax-ns#"
   xmlns:svg="http://www.w3.org/2000/svg"
   xmlns="http://www.w3.org/2000/svg"
   xmlns:sodipodi="http://sodipodi.sourceforge.net/DTD/sodipodi-0.dtd"
   xmlns:inkscape="http://www.inkscape.org/namespaces/inkscape"
   xml:space="preserve"
   width="210mm"
   height="297mm"
   style="shape-rendering:geometricPrecision; text-rendering:geometricPrecision; image-rendering:optimizeQuality; fill-rule:evenodd; clip-rule:evenodd"
   viewBox="0 0 210 297"
   id="svg2"
   sodipodi:version="0.32"
   inkscape:version="0.45.1"
   sodipodi:docname="Saladin_eagle.svg"
   inkscape:output_extension="org.inkscape.output.svg.inkscape"
   sodipodi:docbase="C:\Documents and Settings\Alex\Мои документы"><metadata
   id="metadata22"><rdf:RDF><cc:Work
       rdf:about=""><dc:format>image/svg+xml</dc:format><dc:type
         rdf:resource="http://purl.org/dc/dcmitype/StillImage" /><cc:license
         rdf:resource="{{GFDL-user-ru|Azfita}}" /><dc:title>Сокол (орел) Саладина</dc:title><dc:date>2009-01-07</dc:date><dc:creator><cc:Agent><dc:title>Azfita</dc:title></cc:Agent></dc:creator><dc:rights><cc:Agent><dc:title>RL</dc:title></cc:Agent></dc:rights><dc:publisher><cc:Agent><dc:title>Azfita</dc:title></cc:Agent></dc:publisher><dc:identifier>http://commons.wikimedia.org/wiki/User:Azfita</dc:identifier><dc:source>http://commons.wikimedia.org/wiki/User:Azfita</dc:source><dc:language>ru</dc:language><dc:subject><rdf:Bag><rdf:li>falcon</rdf:li><rdf:li>eagle</rdf:li><rdf:li>coat of arms</rdf:li><rdf:li>flag</rdf:li></rdf:Bag></dc:subject><dc:description>Сокол (орел) Саладина - главный элемент герба некоторых многих арабских государств.</dc:description></cc:Work></rdf:RDF></metadata><sodipodi:namedview
   inkscape:window-height="480"
   inkscape:window-width="640"
   inkscape:pageshadow="2"
   inkscape:pageopacity="0.0"
   guidetolerance="10.0"
   gridtolerance="10.0"
   objecttolerance="10.0"
   borderopacity="1.0"
   bordercolor="#666666"
   pagecolor="#ffffff"
   id="base" />
 <defs
   id="defs4">
  <style
   type="text/css"
   id="style6">
   
    .fil0 {fill:black}
    .fil1 {fill:#CC9933}
    .fil2 {fill:white;fill-rule:nonzero}
   
  </style>
 </defs>
 <g
   id="Слой_x0020_1">
  <metadata
   id="CorelCorpID_0Corel-Layer" />
  <g
   id="_52109536">
   <path
   id="_51687544"
   class="fil0"
   d="M21.2567 248.399c9.1344,2.1271 4.8899,-3.422 6.7145,-3.1434 0.6847,0.1039 1.4297,0.2108 2.1971,0.367 25.0354,5.099 32.0694,9.4881 74.8315,9.4881 42.7622,0 49.7961,-4.3891 74.8316,-9.4881 0.7673,-0.1562 1.5124,-0.2631 2.1971,-0.367 1.8246,-0.2786 -2.4199,5.2705 6.7145,3.1434 3.1384,-0.7306 6.7822,7.513 8.3894,7.5866l7.1572 0.3297c-1.8965,1.9614 -4.2723,3.5646 -5.69,5.8842 -2.2539,3.6882 0.0652,8.1194 -2.4024,9.5807 -8.4927,5.0294 -1.3706,7.6525 -3.7524,8.7657 -0.4674,0.218 -0.9854,0.4164 -1.751,0.7069 -28.4666,10.8108 -56.1007,15.747 -85.694,15.747 -29.5932,0 -57.2273,-4.9362 -85.6939,-15.747 -0.7656,-0.2905 -1.2837,-0.4889 -1.751,-0.7069 -2.3819,-1.1132 4.7402,-3.7363 -3.7524,-8.7657 -2.4676,-1.4613 -0.1491,-5.8925 -2.4024,-9.5807 -0.8858,-1.4494 -2.147,-2.6201 -3.4301,-3.7719 -3.2947,-2.957 -2.3492,-2.1081 1.4503,-2.2834l3.4469 -0.1586c1.6073,-0.0736 5.251,-8.3172 8.3895,-7.5866z" />
   <path
   id="_52363248"
   class="fil1"
   d="M20.5424 256.047c-1.0814,1.4583 -2.2376,3.0348 -3.7229,4.1515 1.1001,2.1907 1.4056,4.4503 1.4328,6.9469 0.0024,0.2483 -0.0042,0.4966 -0.0079,0.7443 3.0533,2.0998 5.5946,4.9516 5.5976,8.8387l-0.0018 0.1824c26.3148,9.6793 53.0311,14.4456 81.1596,14.4456 28.1286,0 54.8449,-4.7663 81.1597,-14.4456l-0.0018 -0.1836c0.003,-3.8859 2.5443,-6.7377 5.5976,-8.8375 -0.0037,-0.2477 -0.0103,-0.496 -0.0079,-0.7437 0.0272,-2.4954 0.3333,-4.7556 1.4328,-6.9475 -1.4853,-1.1167 -2.6416,-2.6932 -3.7229,-4.1515 -0.4329,-0.5827 -0.8568,-1.2005 -1.3174,-1.7737 -3.5037,0.5625 -7.2435,0.3291 -9.6483,-2.6029 -6.3541,1.3573 -12.6617,2.9166 -19.0074,4.3119 -7.075,1.5545 -14.2297,2.7389 -21.4441,3.4535 -10.9748,1.087 -22.0166,1.3175 -33.0403,1.3175 -11.0236,0 -22.0654,-0.2305 -33.0402,-1.3175 -7.2145,-0.7146 -14.3692,-1.899 -21.4442,-3.4535 -6.3456,-1.3948 -12.6532,-2.9546 -19.0073,-4.3113 -2.4042,2.932 -6.1446,3.1648 -9.6483,2.6023 -0.4607,0.5732 -0.8845,1.1904 -1.3174,1.7737zm-5.3174 3.7648c1.8052,-0.9813 3.2006,-2.9261 4.3423,-4.4651 0.3713,-0.5002 1.1858,-1.6662 1.8155,-2.3642 3.2622,0.6232 6.9941,0.6843 9.2372,-2.1211l0.3779 -0.5139c6.6161,1.3942 13.1785,3.0241 19.7808,4.4753 7.0376,1.5462 14.1258,2.7199 21.3017,3.4309 10.9313,1.0829 21.9398,1.3116 32.9194,1.3116 10.9796,0 21.9882,-0.2287 32.9195,-1.3116 7.1758,-0.711 14.2641,-1.8847 21.3017,-3.4309 6.6028,-1.4518 13.1646,-3.0811 19.7802,-4.4758l0.3785 0.5138c2.243,2.8054 5.9744,2.7449 9.2371,2.1217 0.6298,0.698 1.4443,1.864 1.8156,2.3642 1.1417,1.539 2.537,3.4838 4.3429,4.4651l-0.0567 0.0915c-1.3996,2.2911 -1.7353,4.635 -1.7637,7.2551 -0.0036,0.3511 0.0212,0.8934 0.0025,1.3645 -2.9217,1.8937 -5.5892,4.5239 -5.5922,8.2049 0,0.3345 0.0224,0.6612 0.0652,0.9819 -26.7718,9.9579 -53.7393,14.8347 -82.4306,14.8347 -28.6912,0 -55.6587,-4.8768 -82.4305,-14.8347 0.0428,-0.3207 0.0652,-0.6474 0.0652,-0.9813 -0.0031,-3.6816 -2.6705,-6.3118 -5.5922,-8.2055 -0.0187,-0.4717 0.0061,-1.014 0.0024,-1.3651 -0.0283,-2.6195 -0.364,-4.9634 -1.7636,-7.2539l-0.0561 -0.0921zm-6.6494 -2.4396c1.4201,1.2748 2.8329,2.5346 3.8593,4.2145 1.0741,1.7582 1.2674,3.6068 1.2891,5.6074 0.009,0.7942 -0.0779,2.6249 0.3912,3.2866 0.0834,0.1176 0.1854,0.2073 0.3098,0.281 2.118,1.2545 4.8863,3.2533 4.8887,5.9691 0.0006,0.8007 -0.2336,1.5171 -0.5832,2.2299l-0.3448 0.6516c0.4444,0.1913 0.9051,0.3612 1.3549,0.5317 27.7989,10.5572 55.4993,15.6674 85.2592,15.6674 29.76,0 57.4604,-5.1102 85.2593,-15.6674 0.4432,-0.1681 0.8972,-0.3351 1.3543,-0.5329l-0.3442 -0.6504c-0.3496,-0.7128 -0.5838,-1.4292 -0.5832,-2.2299 0.0024,-2.7158 2.7707,-4.7146 4.8887,-5.9691 0.1244,-0.0737 0.2264,-0.1634 0.3097,-0.281 0.4692,-0.6617 0.3822,-2.4924 0.3913,-3.2866 0.0217,-2.0006 0.2149,-3.8492 1.289,-5.6074 1.0265,-1.6799 2.4393,-2.9397 3.8594,-4.2145l-4.3478 -0.2001c-2.464,-0.1129 -5.9719,-8.1023 -8.0549,-7.6175 -1.9901,0.4633 -5.5306,1.1642 -7.031,-0.7129 -0.7184,-0.8993 -0.617,-1.5349 -0.6019,-2.2869 -0.439,0.0689 -0.8767,0.142 -1.3126,0.2305 -7.2386,1.4749 -14.3716,3.2647 -21.5788,4.8489 -6.9627,1.5301 -13.8065,2.6653 -20.9105,3.3691 -10.7833,1.0681 -21.7557,1.295 -32.5868,1.295 -10.831,0 -21.8034,-0.2269 -32.5867,-1.295 -7.104,-0.7038 -13.9478,-1.839 -20.9105,-3.3691 -7.2072,-1.5842 -14.3402,-3.374 -21.5788,-4.8483 -0.4359,-0.0891 -0.8737,-0.1622 -1.3126,-0.2311 0.0151,0.752 0.1165,1.3876 -0.602,2.2869 -1.5003,1.8771 -5.0409,1.1762 -7.0309,0.7129 -2.083,-0.4848 -5.5909,7.5046 -8.0549,7.6175l-4.3478 0.2001z" />
   <path
   id="_51677720"
   class="fil0"
   d="M7.7153 71.7399l-7.7153 179.202c13.8371,-6.8847 13.2755,-9.1603 17.6118,-16.2763 1.7237,-2.8283 5.8636,-4.639 8.3406,-6.8303 5.822,-5.1517 4.325,-5.6585 6.5205,-8.3529 1.5243,-1.8699 5.3478,-3.157 7.1042,-4.8076 2.7286,-2.5636 2.6786,-5.0931 5.4787,-7.1392 10.9389,-7.995 9.9732,-12.5294 14.0346,-18.0833 0.2142,-0.2935 0.4778,-0.5558 0.789,-0.7924l-14.6743 51.3337c-1.4262,-0.5049 -2.7328,-1.1658 -4.3036,-1.5841 -2.3621,-0.6287 -5.4358,0.4577 -7.2803,-0.159 -0.8847,-0.2958 -1.1061,-1.5752 -1.8992,-2.0664 -3.5539,-2.2039 -8.6066,-0.3729 -8.7696,4.3755 -0.0256,0.7475 0.141,1.4539 0.4451,2.1046 -0.103,4.2763 2.7482,11.657 4.8486,10.8754 0.4783,-0.1781 -0.908,-3.769 1.228,-6.3983 0.116,-0.1428 0.2315,-0.2958 0.3457,-0.4584 2.3068,-0.0089 2.1444,-1.617 3.4849,-1.9152 1.065,-0.2372 7.3136,3.2688 10.7622,2.0664 1.8718,-0.6525 3.5348,1.6768 5.6976,2.0664 2.0545,0.37 5.4995,0.0712 7.0031,1.7288 0.1077,0.1184 0.1886,0.2558 0.2576,0.4028 -0.0732,0.2008 -0.1243,0.4189 -0.1499,0.6573 -0.5177,4.8446 4.7885,11.0678 5.8333,9.9443 0.3974,-0.4266 -0.8342,-3.2406 -0.307,-5.1648 0.2374,-0.8683 1.1322,-1.7396 2.0473,-2.6204 2.5335,-0.5205 5.1086,-1.9601 7.4731,-2.2457 3.2743,-0.3974 7.5677,2.229 10.7432,2.0712 4.1108,-0.2044 7.9467,0.3526 10.3296,1.1802 0.7242,0.2516 1.4036,0.4369 2.0296,0.56 2.6221,4.3169 1.7695,4.3724 1.7629,10.3823 -0.0006,0.3663 5.9101,-4.3271 6.2939,-7.94 0.2772,-2.6103 0.3629,-5.1309 -1.0621,-6.0631 0.0012,-0.1153 -0.0042,-0.2336 -0.0167,-0.3543 -0.3587,-3.4923 -3.6122,-3.4851 -6.0237,-3.9692 -3.6627,-0.735 -5.4578,-1.9744 -8.2126,-1.6965l0.7217 -4.2948c1.6338,1.0159 2.8018,1.6476 3.5723,1.7127 1.021,0.086 3.705,-0.7852 7.1863,-1.9141 1.6392,2.4131 3.1939,4.0899 5.7536,6.0553 2.5597,-1.9654 4.1144,-3.6422 5.7536,-6.0553 3.4813,1.1289 6.1653,2.0001 7.1863,1.9141 0.7705,-0.0651 1.9385,-0.6968 3.5723,-1.7127l0.7217 4.2948c-2.7548,-0.2779 -4.5499,0.9615 -8.2126,1.6965 -2.4115,0.4841 -5.665,0.4769 -6.0237,3.9692 -0.0125,0.1207 -0.0179,0.239 -0.0167,0.3543 -1.425,0.9322 -1.3393,3.4528 -1.0621,6.0631 0.3838,3.6129 6.2945,8.3063 6.2939,7.94 -0.0066,-6.0099 -0.8592,-6.0654 1.7629,-10.3823 0.626,-0.1231 1.3054,-0.3084 2.0296,-0.56 2.3829,-0.8276 6.2188,-1.3846 10.3296,-1.1802 3.1755,0.1578 7.4689,-2.4686 10.7432,-2.0712 2.3645,0.2856 4.9396,1.7252 7.4731,2.2457 0.9151,0.8808 1.8099,1.7521 2.0473,2.6204 0.5272,1.9242 -0.7044,4.7382 -0.307,5.1648 1.0448,1.1235 6.351,-5.0997 5.8333,-9.9443 -0.0256,-0.2384 -0.0767,-0.4565 -0.1499,-0.6573 0.069,-0.147 0.1499,-0.2844 0.2576,-0.4028 1.5036,-1.6576 4.9486,-1.3588 7.0031,-1.7288 2.1628,-0.3896 3.8258,-2.7189 5.6976,-2.0664 3.4486,1.2024 9.6972,-2.3036 10.7622,-2.0664 1.3405,0.2982 1.1781,1.9063 3.4849,1.9152 0.1142,0.1626 0.2297,0.3156 0.3457,0.4584 2.136,2.6293 0.7497,6.2202 1.228,6.3983 2.1004,0.7816 4.9516,-6.5991 4.8486,-10.8754 0.3041,-0.6507 0.4707,-1.3571 0.4451,-2.1046 -0.163,-4.7484 -5.2157,-6.5794 -8.7696,-4.3755 -0.7931,0.4912 -1.0145,1.7706 -1.8992,2.0664 -1.8445,0.6167 -4.9182,-0.4697 -7.2803,0.159 -1.5708,0.4183 -2.8774,1.0792 -4.3036,1.5841l-14.6743 -51.3337c0.3112,0.2366 0.5748,0.4989 0.789,0.7924 4.0614,5.5539 3.0957,10.0883 14.0346,18.0833 2.8001,2.0461 2.7501,4.5756 5.4787,7.1392 1.7564,1.6506 5.5799,2.9377 7.1042,4.8076 2.1955,2.6944 0.6985,3.2012 6.5205,8.3529 2.477,2.1913 6.6169,4.002 8.3406,6.8303 4.3363,7.116 3.7747,9.3916 17.6118,16.2763l-7.7153 -179.202c-0.4212,-9.8111 -10.3409,-17.1404 -19.5419,-17.9202 -15.3888,-1.3051 -34.2156,19.4255 -44.1817,16.2135 -5.2026,-1.6768 -8.5102,-6.0439 -10.996,-10.7976 -2.1557,-4.1239 -2.8566,-8.2699 -3.351,-12.8653 -0.3642,-3.3769 -0.4272,-6.6791 -0.379,-9.964 0.0862,-5.8127 0.5247,-11.5769 0.2677,-17.6232 -0.1577,-3.7164 -1.0507,-7.7638 -3.9394,-10.3315 -1.5928,-1.4091 -3.7342,-2.4758 -5.8399,-2.7937 -2.5537,-0.3861 -5.1437,0.1368 -7.723,-0.3389 -4.3851,-0.8121 -10.5593,-7.8993 -14.1257,-2.9753 -0.2933,0.404 -0.5337,0.8103 -0.6735,1.2932l-0.1523 0.5258 -0.5349 -0.1063c-0.6141,-0.1225 -3.0934,-1.8681 -3.8306,-2.2798 -1.9426,-1.0846 -4.1334,-1.9021 -6.3902,-1.7617 -4.9896,0.3066 -8.2436,2.7913 -9.2777,7.7375 -0.4284,2.0485 -0.4599,4.8177 -0.0565,6.9456 0.6503,-1.1401 1.7231,-2.1907 2.9077,-2.6263 5.7084,-1.9165 10.0851,2.3801 11.5863,7.5402 2.2187,6.7855 1.6487,17.5055 0.3885,24.4864 -0.7788,4.085 -1.7326,8.2729 -2.9071,12.4236 -0.5754,1.209 -1.1698,2.4328 -1.7761,3.6644 -2.4739,4.3265 -5.4894,8.2902 -10.3195,9.8469 -9.9661,3.2126 -28.7929,-17.5186 -44.1817,-16.2135 -9.201,0.7798 -19.1207,8.1091 -19.5419,17.9202z" />
   <path
   id="_51677648"
   class="fil0"
   d="M106.096 170.371c2.0973,27.4091 5.2692,57.9627 6.1254,70.1342 1.7874,0.5904 4.8111,1.5632 5.6191,1.4951 0.5486,-0.0466 2.0182,-0.885 3.4605,-1.7802l-11.4697 -68.2625c-1.782,-0.8056 -2.8678,-1.3344 -3.7353,-1.5866zm-90.3466 65.1193l5.4109 -166.796c-6.1968,-0.625 -8.7999,1.9714 -12.3925,6.2579l-7.4915 174.015c4.2601,-2.1603 9.0224,-4.8518 11.6636,-8.7169 1.0204,-1.4939 1.898,-3.1528 2.8095,-4.7603zm58.0004 -51.0129l-0.0244 -71.0795c-3.9513,-2.5344 -7.7372,-5.3597 -11.419,-8.4623l-2.5954 82.406c1.7659,-1.0714 4.1626,-1.4814 6.0011,-1.7611l8.0377 -1.1031zm-23.7407 -91.237l-4.1721 112.219c5.791,-4.4639 7.7295,-8.5012 11.4072,-15.3996l2.7447 -87.1263c-3.1702,-2.8027 -6.2707,-5.8127 -9.3414,-9.0217l-0.6384 -0.671zm-12.1843 -13.2878l-4.3851 137.129c1.7737,-1.1671 4.3744,-2.5224 5.3246,-3.2801 2.2747,-1.8137 2.3336,-3.1857 4.6189,-6.4084l4.3357 -116.615c-3.301,-3.5986 -6.5312,-7.303 -9.8941,-10.8263zm-14.2982 -10.7953l-5.2836 162.882c2.0629,-1.9571 4.8278,-3.2467 6.9228,-5.101 2.0563,-1.8196 3.6901,-3.3159 4.8813,-5.7959 0.2915,-0.6071 0.5819,-1.1348 0.9341,-1.6529l4.5374 -141.897c-0.2475,-0.2468 -0.495,-0.493 -0.7443,-0.7369 -3.0571,-2.9944 -6.9501,-6.4269 -11.2477,-7.6986zm112.724 115.32l0.0244 -71.0795c3.9513,-2.5344 7.7372,-5.3597 11.419,-8.4623l2.5954 82.406c-1.7659,-1.0714 -4.1626,-1.4814 -6.0011,-1.7611l-8.0377 -1.1031zm58.0004 51.0129l-5.4109 -166.796c6.1968,-0.625 8.7999,1.9714 12.3925,6.2579l7.4915 174.015c-4.2601,-2.1603 -9.0224,-4.8518 -11.6636,-8.7169 -1.0204,-1.4939 -1.898,-3.1528 -2.8095,-4.7603zm-7.7772 -166.333l5.2836 162.882c-2.0629,-1.9571 -4.8278,-3.2467 -6.9228,-5.101 -2.0563,-1.8196 -3.6901,-3.3159 -4.8813,-5.7959 -0.2915,-0.6071 -0.5819,-1.1348 -0.9341,-1.6529l-4.5374 -141.897c0.2475,-0.2468 0.495,-0.493 0.7443,-0.7369 3.0571,-2.9944 6.9501,-6.4269 11.2477,-7.6986zm-14.2982 10.7953l4.3851 137.129c-1.7737,-1.1671 -4.3744,-2.5224 -5.3246,-3.2801 -2.2747,-1.8137 -2.3336,-3.1857 -4.6189,-6.4084l-4.3357 -116.615c3.301,-3.5986 6.5312,-7.303 9.8941,-10.8263zm-12.1843 13.2878l4.1721 112.219c-5.791,-4.4639 -7.7295,-8.5012 -11.4072,-15.3996l-2.7447 -87.1263c3.1702,-2.8027 6.2707,-5.8127 9.3414,-9.0217l0.6384 -0.671zm-62.2123 147.265c0.8562,-12.1715 4.0281,-42.7251 6.1254,-70.1342 -0.8675,0.2522 -1.9533,0.781 -3.7353,1.5866l-11.4697 68.2625c1.4423,0.8952 2.9119,1.7336 3.4605,1.7802 0.808,0.0681 3.8317,-0.9047 5.6191,-1.4951zm6.2986 -70.1814c-1.4054,23.0617 -3.0833,47.4567 -4.3494,69.5414l0.5016 0.7386c1.4392,2.1184 2.8607,3.6566 4.7706,5.2091 1.9099,-1.5525 3.3314,-3.0907 4.7706,-5.2091l0.5016 -0.7386c-1.2661,-22.0847 -2.944,-46.4791 -4.3494,-69.5414 -0.6527,-0.1667 -1.1929,-0.1667 -1.8456,0z" />
   <path
   id="_51677200"
   class="fil1"
   d="M91.1266 176.78c-2.3318,-0.4721 -2.7774,-7.1339 -3.6997,-6.9462 -3.1088,0.6334 -8.3495,8.3786 -11.6398,6.8626 -3.4099,-1.5717 0.8687,-10.5676 -1.2102,-12.6699 -0.5718,0.3454 -3.0767,2.8236 -3.57,3.2251 -1.4613,1.1886 -2.9065,1.8698 -4.2905,1.8238l-2.8666 10.028c0.1707,0.8874 0.3141,1.6959 0.4319,2.3126 0.3618,1.8961 1.2233,7.1076 2.2378,8.6046 2.3217,3.4265 6.7478,-11.4718 9.8406,-9.2123 3.5104,2.5642 2.6524,12.8904 3.6645,14.11 2.8596,0.0508 4.4232,-9.3294 8.0711,-9.189 1.0329,0.0395 1.3524,1.7247 1.5404,2.5111 0.3737,1.5608 0.6855,3.099 1.1674,4.6366 0.7604,2.4244 1.8558,4.6796 3.5783,6.3391l3.7038 -22.0435c-0.0363,0.0018 -0.0738,0.0006 -0.1125,-0.0036 -2.1907,-0.2527 -2.0432,-5.117 -3.0517,-5.2174 -0.8752,-0.0867 -1.5469,5.2838 -3.7948,4.8284zm10.7449 -160.851c-1.663,-0.1326 -2.5662,-1.173 -3.439,-2.4213 -2.0813,-2.9264 -6.4158,-3.751 -9.7686,-6.5758 -2.236,-1.8788 -3.1856,-3.9135 -7.4368,-4.8619 -2.6108,-0.5784 -5.3853,0.5474 -6.8394,2.56 -1.4209,1.9607 -1.7773,4.5028 -1.7773,6.5471 0,0.1805 0.0238,0.3191 0.0238,0.4787 0.2154,-0.1787 0.4237,-0.3185 0.6028,-0.4345 2.0342,-1.6493 6.9251,-4.5679 12.9071,-0.9985 7.0935,4.2422 8.2609,9.5511 8.3525,10.5138 0,0 -2.4877,-2.2194 -4.6046,-2.4101 0,0 0.8585,12.6364 -1.738,24.2163l-0.2945 1.3165 -0.0786 0.5007c-0.4563,2.3963 -0.943,4.6653 -1.4523,6.813 -0.3909,1.6481 -0.7949,3.2252 -1.2097,4.7322 -0.0958,0.349 -0.1921,0.6938 -0.2891,1.0351 -3.2903,11.5924 -7.1554,18.9539 -9.9774,23.241 7.8824,-2.5612 11.6463,-5.4727 11.6921,-5.5031l2.3729 -1.6446c2.5602,-8.7294 4.4368,-21.7207 5.1639,-27.2226 0.0054,-0.0449 0.0119,-0.0891 0.0173,-0.1321 0.3635,-2.7787 1.9265,-4.0629 1.5999,-0.5241 -0.0042,0.046 -0.0089,0.0938 -0.0131,0.1398 -1.5886,16.7478 -5.609,32.2788 -7.3315,36.3657 4.513,-2.3515 8.9261,-5.5928 8.9719,-5.6316l0.3249 -0.2366c1.9694,-7.9174 3.2445,-27.0518 3.5366,-31.7834 0.091,-1.5657 1.5184,-2.2708 1.428,0.0065 -0.7777,18.5644 -2.4609,28.8947 -3.0714,31.8157 1.0657,0.8856 2.9185,2.4614 4.3018,3.6333 0.4409,0.3741 0.8342,0.7063 1.1394,0.9627l0.0506 -0.0484 1.19 -1.145 4.2601 -4.097c-0.3439,-1.5232 -2.3597,-10.9853 -3.2248,-31.0735 -0.1036,-2.4841 1.3036,-2.2486 1.419,-0.0747 0.291,5.1129 1.4447,23.409 3.4373,30.9241 -0.0226,0.003 4.5148,4.7215 10.6789,7.8546 0,0 -5.9261,-13.1951 -9.3979,-37.746 -0.2213,-1.6093 1.3923,-0.8821 1.6023,0.3752 0.0036,0.021 0.0078,0.0437 0.0113,0.0658 0.7307,4.3336 3.7741,21.5965 7.4785,31.374 0,0 4.936,2.6001 13.1374,3.322 -6.0177,-8.3398 -9.3378,-17.3101 -11.1507,-24.6914 -0.0708,-0.288 -0.1393,-0.5736 -0.2059,-0.8569 -0.3201,-1.3685 -0.5879,-2.6772 -0.8122,-3.9112 -0.0148,-0.0788 -0.0285,-0.1577 -0.0428,-0.2366 -0.9258,-5.1314 -1.3453,-10.5496 -1.3292,-14.1034 0,-1.4994 0.0714,-2.9586 0.0714,-2.9586 0.8877,-13.7258 0.2445,-16.6755 0.1999,-16.7992 0,0 -0.3487,-2.7512 -1.6862,-4.7477l-0.2446 -0.3837c-1.331,-1.8782 -2.7441,-2.324 -2.7441,-2.324 -1.1935,-0.3705 -2.3424,-0.3424 -3.4414,-0.0597 0,0 -2.8506,0.9011 -5.7417,3.7731 -1.8546,1.6726 -4.0334,3.2753 -6.6288,3.0703zm25.7822 45.6126c2.3984,4.0366 5.3478,7.6932 9.8727,9.3951l0.0327 0.0126 0.0322 0.0113 0.2677 0.0968 0.0167 0.006 0.0291 0.0096 0.2928 0.098c10.6658,3.4385 29.7103,-17.4099 44.4453,-16.1603 8.5678,0.726 18.0574,7.5629 18.453,16.7806l0.053 1.2322c-3.4581,-3.947 -6.4313,-6.1915 -12.6662,-5.4942 -5.4584,0.6108 -10.3058,4.7663 -14.0882,8.4707 -5.518,5.4045 -10.5415,11.4831 -15.9,17.083l-0.5236 0.545 -0.1309 0.1356 -0.0535 0.0556 -0.0774 0.0795 -0.1315 0.1356 -0.5009 0.5134 -0.0238 0.0245 -0.6563 0.6669 -0.0304 0.0304 -0.3647 0.3669 -0.1315 0.1321 -0.1315 0.1321 -0.0839 0.0836 -0.0482 0.0478 -0.1315 0.1309 -0.132 0.1309 -0.2636 0.2611 -0.1321 0.1303 -0.0066 0.0066 -0.1255 0.1237 -0.3963 0.3884 -0.1321 0.1291 -0.0606 0.0591 -0.072 0.0693 -0.1321 0.1285 -0.5129 0.4948 -0.0173 0.0168 -0.1326 0.1272 -0.3987 0.3801 -0.1327 0.1267 -0.0369 0.0352 -0.0964 0.0909 -0.1326 0.1255 -0.1333 0.1255 -0.1333 0.1254 -0.1333 0.1249 -0.0916 0.0861 -0.0416 0.0388 -0.1333 0.1243 -0.1339 0.1243 -0.2672 0.248 -0.1332 0.1231 -0.0131 0.0126 -0.1208 0.1111 -0.1339 0.1225 -0.3951 0.361 -0.0071 0.0065 -0.0678 0.0622 -0.0661 0.0603 -0.1344 0.1213 -0.4028 0.364 -0.0012 0c-12.6537,11.3701 -26.3725,19.3836 -43.8289,23.4149l-2.38 0c-18.9421,-4.3761 -33.4826,-13.4372 -47.0359,-26.3891l-0.1327 -0.1267 -0.2653 -0.2545 -0.1327 -0.1279 -0.1321 -0.1279 -0.1327 -0.1285 -0.1327 -0.1279 -0.2641 -0.2581 -0.1327 -0.1291 -0.1321 -0.1297 -0.1321 -0.1296 -0.1255 -0.1231 -0.0066 -0.0066 -0.1321 -0.1303 -0.1315 -0.1303 -0.1321 -0.1308 -0.132 -0.1309 -0.1315 -0.1315 -0.0482 -0.0472 -0.0839 -0.0842 -0.1315 -0.1315 -0.1315 -0.1321 -0.1315 -0.132 -0.1321 -0.1327 -0.1011 -0.1022 -0.0304 -0.0304 -0.1309 -0.1327 -0.5254 -0.5342 -0.0238 -0.0245 -0.5009 -0.5134 -0.1315 -0.1356 -0.0774 -0.0795 -0.0535 -0.0556 -0.1309 -0.1356 -0.5236 -0.545c-5.3585,-5.5999 -10.382,-11.6785 -15.9,-17.083 -3.7824,-3.7044 -8.6298,-7.8599 -14.0882,-8.4707 -6.2349,-0.6973 -9.2081,1.5472 -12.6662,5.4942l0.053 -1.2322c0.3956,-9.2177 9.8852,-16.0546 18.453,-16.7806 14.735,-1.2496 33.7795,19.5988 44.4453,16.1603l0.094 -0.0305 0.0262 -0.009 0.1196 -0.04 0.0928 -0.0317 0.0262 -0.0095 0.0196 -0.0066 0.1898 -0.0687 0.0262 -0.0096 0.2065 -0.0783 0.0268 -0.0101c3.94,-1.5352 6.6918,-4.5745 8.9308,-8.0602 -1.5155,4.3743 -3.3135,8.6213 -5.4507,12.5653 -1.1115,2.0515 -2.9024,5.0693 -4.6987,7.2463 5.3056,-1.402 12.4758,-3.9638 16.4295,-7.0628l1.356 -1.0661 -0.4117 1.6798c-0.6367,2.5965 -1.5762,5.3334 -2.5924,7.8755 4.0739,-1.7258 8.5268,-4.4598 11.9778,-6.9403l0.3724 -0.2677 6.5194 5.4152 6.3432 -6.106 0.4117 0.395c3.4337,3.2944 9.1742,7.4745 14.1799,9.1585 -1.265,-1.8226 -2.352,-4.0994 -2.9209,-6.0463l-0.3575 -1.2257 1.1661 0.5098c3.8437,1.6804 10.075,2.5606 14.7184,2.9012 -4.8772,-6.063 -8.4781,-12.9764 -10.9497,-20.3069zm-28.8821 111.551c-0.2094,0.6495 -0.6658,2.0736 -0.9276,2.7524 -0.83,-0.8115 -0.8365,-4.8864 -2.8059,-5.0824 -2.1063,-0.2086 -2.7519,5.0334 -3.6759,4.8464 -1.5571,-0.3156 -1.5589,-7.4787 -4.1721,-6.9463 -3.0291,0.6173 -8.788,7.9239 -10.9068,6.9475 -2.2538,-1.0386 1.9171,-10.1804 -1.0656,-12.6107 -1.6202,-1.3201 -4.7498,4.7166 -8.1609,4.8858l6.6663 -23.3199 3.0106 -4.5369 -0.6194 -1.2208 -2.3787 3.5837 -0.0102 -28.9933c0.789,0.5007 1.5821,0.9937 2.3806,1.479 8.2995,4.9915 17.3553,8.7306 27.704,11.0922l1.19 0.2373 1.19 -0.2373c10.3487,-2.3616 19.4045,-6.1007 27.704,-11.0922 0.7985,-0.4853 1.5916,-0.9783 2.3806,-1.479l-0.0102 28.9933 -2.3787 -3.5837 -0.7664 1.0003 3.1576 4.7574 6.6663 23.3199c-3.4111,-0.1692 -6.5407,-6.2059 -8.1609,-4.8858 -2.9827,2.4303 1.1882,11.5721 -1.0656,12.6107 -2.1188,0.9764 -7.8777,-6.3302 -10.9068,-6.9475 -2.6132,-0.5324 -2.615,6.6307 -4.1721,6.9463 -0.924,0.187 -1.5696,-5.055 -3.6759,-4.8464 -1.9694,0.196 -1.9759,4.2709 -2.8059,5.0824 -0.2618,-0.6788 -0.7182,-2.1029 -0.9276,-2.7524 -0.9526,-2.9545 -3.2826,-4.0917 -6.2284,-4.0917 -2.9458,0 -5.2758,1.1372 -6.2284,4.0917zm84.1533 78.3849c0.1267,-1.8011 0.8449,-4.7591 -0.3082,-6.179 -1.2293,-1.5142 -4.1066,-4.1322 -1.7481,-5.4349 1.5089,-0.8325 3.3772,-0.202 4.2363,1.2567 0.7265,1.234 0.0262,4.5989 -0.3326,5.9029 -0.1981,0.7194 -1.0103,3.1062 -1.8474,4.4543zm-89.3386 -1.8919c0,-1.7993 -4.9896,0.9047 -4.9896,-1.1784 0,-0.6227 2.1408,-0.5217 2.8994,-1.5639 0.3046,-0.4195 -0.9734,-0.3042 -1.4572,-0.3753 -0.3986,-0.058 -0.8597,-0.4978 -1.2126,-0.2934 -0.6485,0.3771 -1.0715,0.998 -1.4434,1.3714 -0.3505,0.352 -0.3457,1.1468 -0.5843,1.3141 -2.8476,1.9989 2.067,0.848 2.6971,2.4925 0.1321,0.3448 0.0482,1.4605 0.5902,1.9971 0.3523,0.3496 0.9752,0.1811 1.459,0.2044 0.0714,0.003 0.0725,-0.1345 0.1082,-0.2074 0.6242,-1.2615 1.8076,0.1494 3.3814,0.202 0.9543,0.0317 2.0289,-1.0679 3.2338,-1.4641 0.9555,-0.3137 2.1271,-0.2157 2.2133,-0.8384 0.341,-2.4506 -1.112,-1.5345 -2.9785,-2.3383 -1.0216,-0.4392 -1.9926,-1.5824 -2.8387,-1.023 -0.7426,0.4906 2.6067,1.6851 2.2937,2.5612 -0.2701,0.7571 -3.3718,0.8354 -3.3718,-0.8605zm-17.8284 2.0204c1.1222,0.3442 2.2158,0.897 3.3498,1.0057 0.4034,0.0383 0.7354,-0.3012 1.0335,-0.3012 0.8646,0 0.2618,0.3783 0.5689,0.7106 0.4795,0.5187 1.3696,0.2163 2.0313,0.184 0.0119,-0.0006 0.038,0.0108 0.038,-0.0018 -0.0267,-0.6561 -0.1695,-1.3595 0.0143,-1.8447 0.4915,-1.2997 2.6971,-1.2203 2.6971,-2.8098 0,-0.3657 0.1012,-0.8127 -0.1434,-0.9322 -0.235,-0.1148 -0.498,0.1972 -0.7616,0.3125 -1.6094,0.7081 -2.4329,0.5103 -3.2653,0.4679 -0.2201,-0.0108 -0.1529,0.4219 -0.1904,0.6508 -0.376,2.2923 -4.09,0.5611 -2.3294,-1.635 0.0441,-0.055 -0.1392,-0.0383 -0.2106,-0.0568 -0.9347,-0.2402 -1.3613,-1.4043 -2.1182,-0.9083 -1.9468,1.2764 1.6315,3.2466 0.927,3.9595 -0.5194,0.5259 -1.2453,0.2952 -1.5731,1.0422 -0.0232,0.0538 -0.1196,0.141 -0.0679,0.1566zm-7.0923 0.2683c-0.5129,-1.4312 -1.1269,-2.7716 1.0918,-2.2379 1.2305,0.2958 4.3601,2.7124 4.3601,0.68 0,-1.0135 0.2238,-1.9033 -1.0787,-1.9033 -1.9141,0 0.6718,-1.2639 0.6295,-1.9941 -0.0041,-0.0717 0.0339,-0.1948 -0.0333,-0.2085 -1.7939,-0.3789 -2.6072,-0.9514 -5.1205,-1.9368 -0.0333,-0.0125 -0.0648,-0.0418 -0.0994,-0.0382 -1.4845,0.1756 -2.6542,0.8748 -1.6249,2.1835 0.1452,0.1853 2.2461,2.1453 0.0899,1.5412 -0.6283,-0.1763 -3.0785,-0.3042 -2.5597,0.0292 2.5799,1.1743 3.5848,0.8408 2.2764,3.23 -0.2606,0.4762 0.7039,0.8533 1.0692,0.8975 0.341,0.0412 1.1145,0.0795 0.9996,-0.2426zm-13.1243 -2.7961c0.8401,-0.2796 1.3488,-0.5862 2.1057,0.248 0.0256,0.0287 0.0392,0.0819 0.0773,0.0915 0.0405,0.0095 0.0863,-0.0192 0.1172,-0.0461 0.5861,-0.5043 1.3281,-0.3788 2.0165,-0.7481 0.3421,-0.1835 0.7098,-0.306 1.0138,-0.5139 0.7497,-0.5128 1.2989,-1.1689 1.6482,-1.736 0.1005,-0.1637 1.6148,-1.6702 1.09,-2.2206 -0.5052,-0.5301 -1.5291,-0.055 -2.3496,0.3418 -0.4516,0.2181 -0.498,0.9436 -0.9883,1.3804 -1.0204,0.9101 -1.5416,1.4503 -3.1916,1.4503 -2.3567,0 -3.7972,0.6645 -2.9981,1.5561 0.351,0.3926 1.0008,0.3496 1.4589,0.1966zm-2.6412 -5.1517c-0.1475,0.386 -0.9906,1.5376 -0.4046,1.9487 0.9794,0.6878 1.0353,0.903 2.4276,0.7255 0.4338,-0.055 0.7866,-0.4022 1.1239,-0.6801 0.4671,-0.3848 0.3874,-0.8712 0.6742,-1.2238 0.1707,-0.2104 0.7812,-0.2713 0.6116,-0.4512 -0.7544,-0.8007 -1.2179,-1.6869 -2.6822,-2.2116 -0.9889,-0.3538 -2.3139,-0.456 -3.6116,-0.2653 -0.4046,0.0591 -0.6319,0.3573 -0.6111,0.5264 0.1744,1.3936 2.6537,1.1569 2.4722,1.6314zm-1.3934 1.4957c0,-1.4138 -2.3556,-1.1234 -3.4617,-1.2238 -1.7511,-0.1595 -3.1582,-1.087 -3.0118,-2.9455 0.1463,-1.8572 -5.6388,-2.5241 -4.1352,-0.3627 0.8645,1.243 2.1574,1.1832 2.1574,2.9007 0,0.64 -3.9757,-0.4201 -4.3601,0.2719 -0.1678,0.3029 -0.6063,0.8521 -0.2808,1.0296 1.7314,0.9442 3.8103,1.1186 5.2621,0.6131 0.8074,-0.2815 1.6011,0.3209 2.6197,0.9555 0.1565,0.0974 0.2999,-0.2486 0.4903,-0.3776 0.9442,-0.6377 4.7201,0.7912 4.7201,-0.8612zm-21.8023 -6.6062c2.017,1.1139 1.8926,3.264 1.4053,5.3179 -0.06,0.2545 0.3487,0.3651 0.5611,0.2306 0.1523,-0.0962 0.2737,-0.2462 0.4356,-0.3729 0.047,-0.037 0.0761,-0.0992 0.1154,-0.1553 0.2302,-0.3311 0.3844,-1.3506 0.7646,-1.5412 0.9121,-0.4571 1.0061,0.9215 1.6332,1.4778 0.5902,0.5229 1.6005,0.8504 2.6174,0.9012 0.3189,0.0161 0.1993,-0.7189 0.1993,-1.2914 0,-0.7511 1.635,-3.2174 0.7533,-3.9619 -0.7628,-0.6442 -2.0617,-0.0544 -3.0083,0.2306 -0.9252,0.2791 -1.6029,1.0279 -2.0605,0.695 -0.5206,-0.3783 -0.7526,-1.219 -1.156,-1.9421 -0.2952,-0.5283 -0.554,-0.986 -0.8675,-1.2029 -0.1655,-0.1148 -0.2975,-0.2725 -0.4677,-0.3616 -0.1339,-0.0705 -0.3017,-0.0735 -0.4754,-0.0735 -1.4762,0 -2.5781,0.8348 -2.0218,1.5537 0.3302,0.4267 1.0692,0.2181 1.572,0.496zm68.33 24.6179c2.0742,-0.7685 7.2768,-11.3343 2.4907,-11.1377 -1.1406,0.0448 -1.9248,0.4213 -2.377,1.5268 -0.9365,2.2905 1.5333,5.1762 -0.1137,9.6109zm-36.6824 -3.7128c-0.0982,-0.4787 -0.1958,-0.9513 -0.2291,-1.2836 -0.0589,-0.5922 -0.4278,-3.1952 -0.4873,-4.6569 -0.1559,-3.8239 9.5865,-2.2732 3.7901,-5.1261 -2.3401,-1.1533 -6.1129,0.906 -6.4122,3.7062 -0.1369,1.2794 0.2749,2.1208 0.7634,3.2927 0.3433,0.8229 1.4988,2.8773 2.5751,4.0677zm-34.2769 -8.2436c-0.1267,-1.8011 -0.8449,-4.7591 0.3082,-6.179 1.2293,-1.5142 4.1066,-4.1322 1.7481,-5.4349 -1.5089,-0.8325 -3.3772,-0.202 -4.2363,1.2567 -0.7265,1.234 -0.0262,4.5989 0.3326,5.9029 0.1981,0.7194 1.0103,3.1062 1.8474,4.4543zm89.3386 -1.8919c0,-1.7993 4.9896,0.9047 4.9896,-1.1784 0,-0.6227 -2.2139,-0.3012 -2.9725,-1.3434 -0.3047,-0.4195 1.1197,-0.5982 1.6035,-0.6693 0.3986,-0.058 0.7865,-0.4243 1.1394,-0.2199 0.6485,0.3771 1.0715,0.998 1.4434,1.3714 0.3505,0.352 0.3457,1.1468 0.5843,1.3141 2.8476,1.9989 -2.067,0.848 -2.6971,2.4925 -0.1321,0.3448 -0.0482,1.4605 -0.5902,1.9971 -0.3523,0.3496 -0.9752,0.1811 -1.459,0.2044 -0.0714,0.003 -0.0725,-0.1345 -0.1082,-0.2074 -0.6242,-1.2615 -1.8076,0.1494 -3.3814,0.202 -0.9543,0.0317 -2.0283,-1.0679 -3.2338,-1.4641 -0.9555,-0.3143 -1.9807,0.0048 -2.067,-0.6178 -0.3409,-2.4507 0.9657,-1.7551 2.8322,-2.5589 1.0216,-0.4392 2.0658,-1.5824 2.9119,-1.023 0.7425,0.4906 -2.6799,1.6851 -2.3669,2.5612 0.2701,0.7571 3.3718,0.8354 3.3718,-0.8605zm17.8284 2.0204c-1.1222,0.3442 -2.2158,0.897 -3.3498,1.0057 -0.4034,0.0383 -0.7354,-0.3012 -1.0335,-0.3012 -0.8646,0 -0.2618,0.3783 -0.5689,0.7106 -0.4795,0.5187 -1.3696,0.2163 -2.0313,0.184 -0.0119,-0.0006 -0.038,0.0108 -0.038,-0.0018 0.0267,-0.6561 0.1695,-1.3595 -0.0143,-1.8447 -0.4915,-1.2997 -2.6971,-1.2203 -2.6971,-2.8098 0,-0.3657 -0.1012,-0.8127 0.1434,-0.9322 0.235,-0.1148 0.498,0.1972 0.7616,0.3125 1.6094,0.7081 2.4329,0.5103 3.2653,0.4679 0.2201,-0.0108 0.1529,0.4219 0.1904,0.6508 0.376,2.2923 4.09,0.5611 2.3294,-1.635 -0.0441,-0.055 0.1392,-0.0383 0.2106,-0.0568 0.9347,-0.2402 1.3613,-1.4043 2.1182,-0.9083 1.9468,1.2764 -1.6315,3.2466 -0.927,3.9595 0.5194,0.5259 1.2453,0.2952 1.5731,1.0422 0.0232,0.0538 0.1196,0.141 0.0679,0.1566zm7.0923 0.2683c0.5129,-1.4312 1.1269,-2.7716 -1.0918,-2.2379 -1.2305,0.2958 -4.3601,2.7124 -4.3601,0.68 0,-1.0135 -0.2238,-1.9033 1.0787,-1.9033 1.9141,0 -0.5986,-1.1174 -0.5563,-1.8471 0.0035,-0.0717 -0.1071,-0.3418 -0.0399,-0.3555 1.7939,-0.3789 2.6072,-0.4375 5.1205,-1.4223 0.0327,-0.0125 0.0648,-0.0418 0.0994,-0.0382 1.4845,0.1757 2.6536,0.3603 1.6249,1.669 -0.1452,0.1847 -2.2461,2.1453 -0.0899,1.5412 0.6283,-0.1763 3.0785,-0.3042 2.5597,0.0292 -2.8345,1.3303 -3.1017,1.6607 -2.2764,3.23 0.2522,0.4804 -0.7039,0.8533 -1.0692,0.8975 -0.341,0.0412 -1.1145,0.0795 -0.9996,-0.2426zm13.0511 -2.7226c-0.8401,-0.2796 -1.2756,-0.6597 -2.0325,0.1745 -0.0256,0.0287 -0.0392,0.0819 -0.0773,0.0915 -0.0405,0.0095 -0.0863,-0.0192 -0.1172,-0.0461 -0.5861,-0.5043 -1.3281,-0.3788 -2.0165,-0.7481 -0.3421,-0.1835 -0.7098,-0.306 -1.0138,-0.5139 -0.7497,-0.5128 -1.2989,-1.1689 -1.6482,-1.736 -0.1005,-0.1637 -1.6148,-1.6702 -1.09,-2.2206 0.5052,-0.5301 1.5291,-0.055 2.3496,0.3418 0.4516,0.2181 0.498,0.9436 0.9883,1.3804 1.0204,0.9101 1.5416,1.4503 3.1916,1.4503 2.3567,0 3.724,0.5175 2.9249,1.4091 -0.351,0.3926 -1.0007,0.5701 -1.4589,0.4171zm2.7144 -5.2252c0.1475,0.386 0.9906,1.5376 0.4046,1.9487 -0.9794,0.6878 -1.0353,0.903 -2.4276,0.7255 -0.4338,-0.055 -0.7866,-0.4022 -1.1239,-0.6801 -0.4671,-0.3848 -0.3874,-0.8712 -0.6742,-1.2238 -0.1707,-0.2104 -0.7806,-0.2713 -0.6116,-0.4512 0.7544,-0.8001 1.2179,-1.3935 2.6822,-1.9176 0.9883,-0.3538 2.3139,-0.7494 3.6116,-0.5593 0.404,0.0591 0.6319,0.3573 0.6111,0.5264 -0.1744,1.3936 -2.6537,1.1569 -2.4722,1.6314zm1.3934 1.4957c0,-1.4138 2.3556,-1.1234 3.4617,-1.2238 1.7511,-0.1595 2.8577,-1.0876 3.0118,-2.9455 0.1833,-2.2068 6.1398,-3.0817 4.1352,-0.3627 -0.8984,1.2185 -2.1574,1.1832 -2.1574,2.9007 0,0.64 3.9757,-0.4201 4.3601,0.2719 0.1678,0.3029 0.6063,0.8521 0.2808,1.0296 -1.7314,0.9442 -3.8103,1.1186 -5.2621,0.6131 -0.8074,-0.2815 -1.6011,0.3209 -2.6197,0.9555 -0.1565,0.0974 -0.2999,-0.2486 -0.4903,-0.3776 -0.9442,-0.6377 -4.7201,0.7912 -4.7201,-0.8612zm21.8023 -6.6062c-2.017,1.1139 -1.8926,3.264 -1.4053,5.3179 0.06,0.2545 -0.3487,0.3651 -0.5611,0.2306 -0.1523,-0.0962 -0.2737,-0.2462 -0.4356,-0.3729 -0.047,-0.037 -0.0761,-0.0992 -0.1154,-0.1553 -0.2302,-0.3311 -0.3844,-1.3506 -0.7646,-1.5412 -0.9121,-0.4571 -1.0061,0.9215 -1.6332,1.4778 -0.5902,0.5229 -1.6005,0.8504 -2.6174,0.9012 -0.3189,0.0161 -0.1993,-0.7189 -0.1993,-1.2914 0,-0.7511 -1.635,-3.2174 -0.7533,-3.9619 0.7628,-0.6442 2.0617,-0.0544 3.0083,0.2306 0.9252,0.2791 1.6029,1.0279 2.0605,0.695 0.5206,-0.3783 0.7526,-1.219 1.156,-1.9421 0.2952,-0.5283 0.554,-0.986 0.8675,-1.2029 0.1655,-0.1148 0.2975,-0.2725 0.4677,-0.3616 0.1339,-0.0705 0.3017,-0.0735 0.4754,-0.0735 1.4762,0 2.5781,0.8348 2.0218,1.5537 -0.3302,0.4267 -1.0692,0.2181 -1.572,0.496zm-68.33 24.6179c-2.0742,-0.7685 -7.2768,-11.3343 -2.4907,-11.1377 1.1406,0.0448 1.9248,0.4213 2.377,1.5268 0.9365,2.2905 -1.5333,5.1762 0.1137,9.6109zm36.6824 -3.7128c0.0982,-0.4787 0.1958,-0.9513 0.2291,-1.2836 0.0589,-0.5922 0.4278,-3.1952 0.4873,-4.6569 0.1559,-3.8239 -9.5865,-2.2732 -3.7901,-5.1261 2.3401,-1.1533 6.1129,0.906 6.4122,3.7062 0.1369,1.2794 -0.2749,2.1208 -0.7634,3.2927 -0.3433,0.8229 -1.4988,2.8773 -2.5751,4.0677zm-5.5203 -16.5499c4.3785,-2.0969 1.8331,-10.4021 4.435,-11.1275 1.309,0.0466 5.753,8.2465 10.2434,7.6352 1.6285,-0.2217 2.8697,-3.0799 3.7931,-6.5327l2.0587 7.2008c-2.9583,0.7787 -6.1879,-0.1117 -9.0766,0.9239 -1.995,0.7147 -2.1967,2.5833 -4.6588,2.4148 -1.0282,-0.0418 -1.5,-1.4025 -2.925,-0.9532 -1.1567,0.3646 -2.2693,0.8928 -3.1909,0.8863 -6.4123,-0.0479 -6.5693,1.4138 -8.2014,1.9738 -0.6384,0.2187 -1.3804,-0.4458 -2.997,-0.2707 2.9851,-3.2861 1.7213,-6.5734 2.8102,-7.6951l0.1463 -0.1219c0.4034,0.346 1.9123,2.9604 2.2372,3.4092 1.3137,1.8143 3.0107,3.0315 5.3258,2.2571zm-16.0719 -18.5877c1.9117,1.2101 5.3471,9.7106 10.2392,8.0338 1.6326,-0.5593 1.5987,-5.9572 1.6475,-7.3657 0.0292,-0.8354 0.0934,-5.2952 0.4064,-6.2841 1.5291,0.6238 5.5953,10.2992 10.6337,9.9682 1.8891,-0.1237 4.4303,-10.6011 4.864,-12.2104 0.3386,-1.2549 0.6611,-2.5152 0.9788,-3.7773l5.089 17.8019c-0.8527,3.9482 -1.976,7.5689 -3.2677,7.7446 -4.0305,0.5486 -8.0616,-8.2549 -10.3916,-7.6042 -3.7829,1.0554 -1.115,10.0137 -4.5035,11.1467 -4.3815,1.4664 -5.2924,-6.9254 -7.6831,-5.625 -0.1862,0.101 -0.354,0.2282 -0.5022,0.38 -1.7034,1.7545 -0.0708,5.8449 -3.8222,9.0707 -0.3409,0.2928 -0.6896,0.5778 -1.046,0.8563 -1.134,0.5199 -1.8665,0.9681 -3.8067,0.1153 -2.903,-1.277 -2.3538,-0.4822 -2.9161,-3.8293l-1.0508 -6.2536c1.5738,-1.2794 2.7436,-3.1014 3.5777,-5.2246 0.6206,-1.58 1.0329,-3.2539 1.309,-4.9277 0.1,-0.6083 0.1511,-1.3648 0.2446,-2.0156zm-0.6944 -6.3594c3.6693,2.2504 4.3541,-12.1757 4.9396,-15.5801 2.0474,1.6481 4.4999,8.3123 7.7629,8.8938 4.4737,0.7977 2.083,-9.9975 2.3704,-12.6759 2.3842,1.5824 11.0847,10.9034 12.9619,9.0874l0.7836 2.7411c-1.6844,6.5973 -4.2048,16.1047 -5.3555,17.0567 -4.7784,0.187 -8.3245,-10.9524 -10.9883,-9.9318 -1.2185,0.4673 -1.043,6.2549 -1.0829,7.3945 -0.0291,0.8491 -0.188,5.8323 -0.8425,6.2769 -4.4255,1.5167 -7.363,-8.3762 -10.341,-8.2388 -0.7895,0.0353 -0.7877,2.2128 -0.8639,2.719 -0.2416,1.6099 -0.6075,3.2215 -1.1691,4.7501 -0.6712,1.8268 -1.5922,3.4475 -2.8447,4.6492l-4.3167 -25.6899c0.5772,0.64 1.1496,1.2693 1.7178,1.8716 1.9682,2.0868 4.8474,5.1912 7.2684,6.6762zm-4.3149 -31.2994c2.5454,0.1363 4.1846,9.4836 8.0973,9.1818 2.5888,-0.1984 0.8335,-11.8751 4.2202,-14.3449 0.6837,-0.1028 3.1666,4.2745 3.5152,4.8559 1.0228,1.7079 4.231,7.5505 6.5854,4.0761 1.1722,-1.73 2.0051,-6.8572 2.4175,-9.0288l6.9548 24.3274c-0.0868,0.3622 -0.1797,0.7094 -0.2796,1.035 -1.0835,-0.1392 -5.1782,-3.7318 -5.9095,-4.3718 -1.3613,-1.1928 -2.7012,-2.4167 -4.0792,-3.5897 -0.5099,-0.4344 -2.123,-2.0234 -2.8631,-1.4515 -1.3757,1.0643 1.4315,13.2579 -1.4334,12.7463 -2.8518,-0.5079 -5.4233,-8.2519 -8.1311,-9.1632 -1.1091,-0.3735 -1.1525,2.4082 -1.2239,3.0064 -0.2243,1.8794 -0.435,3.7582 -0.7069,5.6316 -0.0726,0.4995 -1.2376,7.977 -2.2288,7.3693 -2.3068,-1.4151 -5.1467,-4.4872 -7.0245,-6.4784 -0.971,-1.0296 -1.9545,-2.1363 -2.9494,-3.24l-1.1554 -6.8781c2.0485,-1.7061 3.3843,-4.1174 4.294,-6.8029 0.2684,-0.793 1.5732,-6.2955 1.9004,-6.8805zm-3.1731 -10.1445c2.3318,-0.4721 2.7774,-7.1339 3.6997,-6.9462 3.1088,0.6334 8.3495,8.3786 11.6398,6.8626 3.4099,-1.5717 -0.8687,-10.5676 1.2102,-12.6699 0.5718,0.3454 3.0767,2.8236 3.57,3.2251 1.4613,1.1886 2.9065,1.8698 4.2905,1.8238l2.8666 10.028c-0.1707,0.8874 -0.3141,1.6959 -0.4319,2.3126 -0.3618,1.8961 -1.2233,7.1076 -2.2378,8.6046 -2.3217,3.4265 -6.7478,-11.4718 -9.8406,-9.2123 -3.5104,2.5642 -2.6524,12.8904 -3.6645,14.11 -2.8596,0.0508 -4.4232,-9.3294 -8.0711,-9.189 -1.0329,0.0395 -1.3524,1.7247 -1.5404,2.5111 -0.3737,1.5608 -0.6855,3.099 -1.1674,4.6366 -0.7604,2.4244 -1.8558,4.6796 -3.5783,6.3391l-3.7038 -22.0435c0.0363,0.0018 0.0738,0.0006 0.1125,-0.0036 2.1907,-0.2527 2.0432,-5.117 3.0517,-5.2174 0.8752,-0.0867 1.5469,5.2838 3.7948,4.8284zm-52.0011 66.391c-4.3785,-2.0969 -1.8331,-10.4021 -4.435,-11.1275 -1.309,0.0466 -5.753,8.2465 -10.2434,7.6352 -1.6285,-0.2217 -2.8697,-3.0799 -3.7931,-6.5327l-2.0587 7.2008c2.9583,0.7787 6.1879,-0.1117 9.0766,0.9239 1.995,0.7147 2.1967,2.5833 4.6588,2.4148 1.0282,-0.0418 1.5,-1.4025 2.925,-0.9532 1.1567,0.3646 2.2693,0.8928 3.1909,0.8863 6.4123,-0.0479 6.5693,1.4138 8.2014,1.9738 0.6384,0.2187 1.3804,-0.4458 2.997,-0.2707 -2.9851,-3.2861 -1.7213,-6.5734 -2.8102,-7.6951l-0.1463 -0.1219c-0.4034,0.346 -1.9123,2.9604 -2.2372,3.4092 -1.3137,1.8143 -3.0107,3.0315 -5.3258,2.2571zm16.0719 -18.5877c-1.9117,1.2101 -5.3471,9.7106 -10.2392,8.0338 -1.6326,-0.5593 -1.5987,-5.9572 -1.6475,-7.3657 -0.0292,-0.8354 -0.0934,-5.2952 -0.4064,-6.2841 -1.5291,0.6238 -5.5953,10.2992 -10.6337,9.9682 -1.8891,-0.1237 -4.4303,-10.6011 -4.864,-12.2104 -0.3386,-1.2549 -0.6611,-2.5152 -0.9788,-3.7773l-5.089 17.8019c0.8527,3.9482 1.976,7.5689 3.2677,7.7446 4.0305,0.5486 8.0616,-8.2549 10.3916,-7.6042 3.7829,1.0554 1.115,10.0137 4.5035,11.1467 4.3815,1.4664 5.2924,-6.9254 7.6831,-5.625 0.1862,0.101 0.354,0.2282 0.5022,0.38 1.7034,1.7545 0.0708,5.8449 3.8222,9.0707 0.3409,0.2928 0.6896,0.5778 1.046,0.8563 1.134,0.5199 1.8665,0.9681 3.8067,0.1153 2.903,-1.277 2.3538,-0.4822 2.9161,-3.8293l1.0508 -6.2536c-1.5738,-1.2794 -2.7436,-3.1014 -3.5777,-5.2246 -0.6206,-1.58 -1.0329,-3.2539 -1.309,-4.9277 -0.1,-0.6083 -0.1511,-1.3648 -0.2446,-2.0156zm0.6944 -6.3594c-3.6693,2.2504 -4.3541,-12.1757 -4.9396,-15.5801 -2.0474,1.6481 -4.4999,8.3123 -7.7629,8.8938 -4.4737,0.7977 -2.083,-9.9975 -2.3704,-12.6759 -2.3842,1.5824 -11.0847,10.9034 -12.9619,9.0874l-0.7836 2.7411c1.6844,6.5973 4.2048,16.1047 5.3555,17.0567 4.7784,0.187 8.3245,-10.9524 10.9883,-9.9318 1.2185,0.4673 1.043,6.2549 1.0829,7.3945 0.0291,0.8491 0.188,5.8323 0.8425,6.2769 4.4255,1.5167 7.363,-8.3762 10.341,-8.2388 0.7895,0.0353 0.7877,2.2128 0.8639,2.719 0.2416,1.6099 0.6075,3.2215 1.1691,4.7501 0.6712,1.8268 1.5922,3.4475 2.8447,4.6492l4.3167 -25.6899c-0.5772,0.64 -1.1496,1.2693 -1.7178,1.8716 -1.9682,2.0868 -4.8474,5.1912 -7.2684,6.6762zm4.3149 -31.2994c-2.5454,0.1363 -4.1846,9.4836 -8.0973,9.1818 -2.5888,-0.1984 -0.8335,-11.8751 -4.2202,-14.3449 -0.6837,-0.1028 -3.1666,4.2745 -3.5152,4.8559 -1.0228,1.7079 -4.231,7.5505 -6.5854,4.0761 -1.1722,-1.73 -2.0051,-6.8572 -2.4175,-9.0288l-6.9548 24.3274c0.0868,0.3622 0.1797,0.7094 0.2796,1.035 1.0835,-0.1392 5.1782,-3.7318 5.9095,-4.3718 1.3613,-1.1928 2.7012,-2.4167 4.0792,-3.5897 0.5099,-0.4344 2.123,-2.0234 2.8631,-1.4515 1.3757,1.0643 -1.4315,13.2579 1.4334,12.7463 2.8518,-0.5079 5.4233,-8.2519 8.1311,-9.1632 1.1091,-0.3735 1.1525,2.4082 1.2239,3.0064 0.2243,1.8794 0.435,3.7582 0.7069,5.6316 0.0726,0.4995 1.2376,7.977 2.2288,7.3693 2.3068,-1.4151 5.1467,-4.4872 7.0245,-6.4784 0.971,-1.0296 1.9545,-2.1363 2.9494,-3.24l1.1554 -6.8781c-2.0485,-1.7061 -3.3843,-4.1174 -4.294,-6.8029 -0.2684,-0.793 -1.5732,-6.2955 -1.9004,-6.8805z" />
   <path
   id="_51678448"
   class="fil1"
   d="M59.9889 102.933l-2.7447 87.1263c0.2772,-0.444 0.5706,-0.882 0.8871,-1.3147 0.4135,-0.5653 0.9573,-1.0254 1.5797,-1.4031l2.5954 -82.406c-0.7765,-0.6562 -1.5488,-1.3237 -2.3175,-2.0025zm46.1315 70.608c1.3625,22.1033 2.9446,45.2636 4.1518,66.3241l0.8467 0.2749c0.235,0.0764 0.6247,0.2067 1.1025,0.3651 -0.8235,-11.7042 -3.7877,-40.4059 -5.8791,-66.9641l-0.2219 0zm-2.4627 0c-2.0914,26.5582 -5.0556,55.2599 -5.8791,66.9641 0.4778,-0.1584 0.8675,-0.2887 1.1025,-0.3651l0.8467 -0.2749c1.2072,-21.0605 2.7893,-44.2214 4.1518,-66.3241l-0.2219 0zm44.0359 -68.6055l2.5954 82.406c0.6224,0.3777 1.1662,0.8378 1.5797,1.4031 0.3165,0.4327 0.6099,0.8707 0.8871,1.3147l-2.7447 -87.1263c-0.7687,0.6788 -1.541,1.3463 -2.3175,2.0025zm12.2973 -11.6952l4.1721 112.219c0.4677,0.3609 0.9609,0.7296 1.4815,1.1103 0.3618,0.2647 0.6831,0.5402 0.9723,0.8241l-4.3357 -116.615c-0.7575,0.8259 -1.5202,1.6475 -2.2902,2.4615zm12.1843 -13.2878l4.3851 137.129c0.7056,0.4643 1.3565,0.9914 1.8879,1.6433 0.21,0.2582 0.398,0.5104 0.5706,0.7643l-4.5374 -141.897c-0.7795,0.7762 -1.547,1.5638 -2.3062,2.3598zm14.2982 -10.7953l5.2836 162.882c0.6265,0.5946 1.1882,1.2507 1.6463,2.0025 0.2886,0.4738 0.5694,0.9591 0.8473,1.4485l-5.4109 -166.797c-0.075,0.0072 -0.1499,0.0156 -0.2255,0.0239 -0.7235,0.0807 -1.4375,0.2313 -2.1408,0.4398zm-168.23 162.882l5.2836 -162.883c-0.7033,-0.2079 -1.4173,-0.3585 -2.1408,-0.4392 -0.0756,-0.0083 -0.1505,-0.0167 -0.2255,-0.0233l-5.4109 166.796c0.2779,-0.4894 0.5587,-0.9747 0.8473,-1.4485 0.4581,-0.7518 1.0198,-1.4079 1.6463,-2.0025zm17.2756 -154.447l-4.5374 141.897c0.1726,-0.2539 0.3606,-0.5061 0.5706,-0.7643 0.5314,-0.6519 1.1823,-1.179 1.8879,-1.6433l4.3851 -137.129c-0.7592,-0.796 -1.5267,-1.5836 -2.3062,-2.3598zm12.2003 13.1861l-4.3357 116.615c0.2892,-0.2839 0.6105,-0.5594 0.9723,-0.8241 0.5206,-0.3807 1.0138,-0.7494 1.4815,-1.1103l4.1721 -112.219c-0.77,-0.814 -1.5327,-1.6356 -2.2902,-2.4615z" />
   <path
   id="_51678176"
   class="fil2"
   d="M99.2191 7.6347c0,0 0.3177,3.9016 3.6395,3.8269 0,0 1.4399,0.1547 2.1497,-1.4366 0,0 1.0728,1.0834 4.6743,-0.1584 2.9821,-1.0326 3.6253,-1.2657 4.5594,-0.781 0,0 -2.8506,0.9011 -5.7417,3.7731 0,0 -1.4279,-0.4195 -3.5229,-0.0359 -1.3066,0.2486 -2.9434,0.1907 -3.9966,-0.2952 -2.5031,-1.1551 -2.2871,-2.8785 -1.7617,-4.8929 0,0 0,0 0,0zm2.8452 0.8192c0.147,0.3209 0.0684,0.6586 -0.147,0.7572 -0.2183,0.0968 -0.5099,-0.0867 -0.6574,-0.4082 -0.1321,-0.3185 -0.0607,-0.6597 0.1475,-0.7571 0.2309,-0.0974 0.5171,0.0854 0.6569,0.4081 0,0 0,0 0,0z" />
   <path
   id="_51678320"
   class="fil0"
   d="M105 85.1495c-15.7601,10.2632 -26.2903,13.5843 -45.0171,16.164 0,37.1728 15.8762,69.8721 45.0171,90.7567 29.1409,-20.8846 45.0171,-53.5839 45.0171,-90.7567 -18.7268,-2.5797 -29.257,-5.9008 -45.0171,-16.164z" />
   <path
   id="_51676080"
   class="fil1"
   d="M105 186.526c-25.8845,-19.769 -39.4973,-49.0956 -40.4957,-81.3707 15.7125,-2.4503 26.827,-6.1759 40.4957,-14.7177 13.6687,8.5418 24.7832,12.2674 40.4957,14.7177 -0.9984,32.2751 -14.6112,61.6017 -40.4957,81.3707zm-43.8229 -84.1792c0.2832,35.2185 15.0699,67.3107 43.8229,88.2571 28.753,-20.9464 43.5397,-53.0386 43.8229,-88.2571 -17.7373,-2.5156 -28.6387,-5.9923 -43.8229,-15.7809 -15.1842,9.7886 -26.0856,13.2653 -43.8229,15.7809z" />
   <path
   id="_52128328"
   class="fil1"
   d="M105 91.8368c13.0404,8.0505 24.24,11.8914 39.2695,14.3262 -1.008,25.4952 -9.9941,49.0754 -26.808,67.3933 -3.7627,4.0986 -7.917,7.9341 -12.4615,11.4684 -4.5445,-3.5343 -8.6988,-7.3698 -12.4615,-11.4684 -16.8139,-18.3179 -25.8,-41.8981 -26.808,-67.3933 15.0295,-2.4348 26.2291,-6.2757 39.2695,-14.3262z" />
  </g>
 </g>
</svg>